<svg width="32" height="32" viewBox="0 0 32 32" fill="none" xmlns="http://www.w3.org/2000/svg">
<path d="M16.484 19.9293C16.484 17.4653 15.312 15.644 12.8907 14.9613C14.6573 14.12 15.5787 12.8453 15.5787 10.8627C15.5787 6.95333 12.656 6 9.284 6H0V25.628H9.544C13.1227 25.628 16.484 23.9173 16.484 19.9293ZM4.328 9.35067H8.38933C9.95067 9.35067 11.356 9.788 11.356 11.5933C11.356 13.26 10.2627 13.9307 8.716 13.9307H4.328V9.35067ZM4.32667 22.2947V16.8893H9.044C10.9493 16.8893 12.1547 17.6813 12.1547 19.692C12.1547 21.6747 10.716 22.2947 8.95467 22.2947H4.32667Z" fill="white"/>
<path d="M25.0613 25.9999C28.4666 25.9999 30.6719 24.4706 31.7333 21.2199H28.2773C27.9053 22.4332 26.3719 23.0746 25.1826 23.0746C22.8879 23.0746 21.6826 21.7346 21.6826 19.4572H31.9666C31.9839 19.2266 31.9999 18.9772 31.9999 18.7279C31.9999 14.5239 29.5333 11.0186 25.0613 11.0186C20.7159 11.0186 17.7666 14.2746 17.7666 18.5399C17.7653 22.9639 20.5599 25.9999 25.0613 25.9999ZM24.9386 13.9652C26.9053 13.9652 27.8946 15.1172 28.0599 17.0012H21.6879C21.8173 15.1332 23.0613 13.9652 24.9386 13.9652Z" fill="white"/>
<path d="M20.8896 7.03076H28.8736V8.9641H20.8896V7.03076Z" fill="white"/>
</svg>
