<svg width="32" height="32" viewBox="0 0 32 32" fill="none" xmlns="http://www.w3.org/2000/svg">
<path d="M16 11.1094C13.3014 11.1094 11.1094 13.3014 11.1094 16C11.1094 18.6987 13.3014 20.896 16 20.896C18.6987 20.896 20.896 18.6987 20.896 16C20.896 13.3014 18.6987 11.1094 16 11.1094Z" fill="white"/>
<path d="M23.3817 2.6665H8.61899C5.33899 2.6665 2.66699 5.3385 2.66699 8.6185V23.3812C2.66699 26.6665 5.33899 29.3332 8.61899 29.3332H23.3817C26.667 29.3332 29.3337 26.6665 29.3337 23.3812V8.6185C29.3337 5.3385 26.667 2.6665 23.3817 2.6665ZM16.0003 24.6398C11.2377 24.6398 7.36033 20.7625 7.36033 15.9998C7.36033 11.2372 11.2377 7.36517 16.0003 7.36517C20.763 7.36517 24.6403 11.2372 24.6403 15.9998C24.6403 20.7625 20.763 24.6398 16.0003 24.6398ZM24.8217 8.93317C23.8137 8.93317 22.9923 8.11717 22.9923 7.10917C22.9923 6.10117 23.8137 5.27984 24.8217 5.27984C25.8297 5.27984 26.651 6.10117 26.651 7.10917C26.651 8.11717 25.8297 8.93317 24.8217 8.93317Z" fill="white"/>
</svg>
