<svg width="32" height="32" viewBox="0 0 32 32" fill="none" xmlns="http://www.w3.org/2000/svg">
<path d="M28.7999 28.8004V19.4244C28.7999 14.8164 27.8079 11.2964 22.4319 11.2964C19.8399 11.2964 18.1119 12.7044 17.4079 14.0484H17.3439V11.7124H12.2559V28.8004H17.5679V20.3204C17.5679 18.0804 17.9839 15.9364 20.7359 15.9364C23.4559 15.9364 23.4879 18.4644 23.4879 20.4484V28.7684H28.7999V28.8004Z" fill="white"/>
<path d="M3.61621 11.7124H8.92821V28.8004H3.61621V11.7124Z" fill="white"/>
<path d="M6.2722 3.2002C4.5762 3.2002 3.2002 4.5762 3.2002 6.2722C3.2002 7.9682 4.5762 9.37619 6.2722 9.37619C7.9682 9.37619 9.3442 7.9682 9.3442 6.2722C9.3442 4.5762 7.9682 3.2002 6.2722 3.2002Z" fill="white"/>
</svg>
