<svg width="52" height="50" viewBox="0 0 52 50" fill="none" xmlns="http://www.w3.org/2000/svg">
<path d="M10 17.707H18.5959C19.551 17.707 20.3151 18.4713 20.3151 19.4267C20.3151 20.3822 19.551 21.1465 18.5959 21.1465H10C10.3184 25.4777 13.9478 28.8535 18.3412 28.8535H18.6596C19.6147 28.8535 20.3788 29.6178 20.3788 30.5732C20.3788 31.5287 19.6147 32.293 18.6596 32.293H18.3412C13.9478 32.293 10.3184 35.6688 10 40H32.8588C37.2522 40 40.8816 36.6242 41.2 32.293H32.6041C31.649 32.293 30.8849 31.5287 30.8849 30.5732C30.8849 29.6178 31.649 28.8535 32.6041 28.8535H41.2C40.8816 24.5223 37.2522 21.1465 32.8588 21.1465H32.5404C31.5853 21.1465 30.8212 20.3822 30.8212 19.4267C30.8212 18.4713 31.5853 17.707 32.5404 17.707H32.8588C37.2522 17.707 40.8816 14.3312 41.2 10H18.3412C13.9478 10 10.3184 13.3758 10 17.707Z" fill="white"/>
</svg>
