<svg width="59" height="60" viewBox="0 0 59 60" fill="none" xmlns="http://www.w3.org/2000/svg">
<path d="M35.6457 16.7292C37.4579 17.0827 39.2568 17.8819 40.5623 19.1875C41.8679 20.4931 42.6671 22.292 43.0207 24.1042M36.8748 8.125C40.6399 8.54326 44.0279 10.3647 46.7082 13.0417C49.3885 15.7186 51.2019 19.1105 51.6249 22.875M51.6235 41.2551V47.9166C51.6339 50.4631 49.3442 52.5895 46.7732 52.3577C24.5833 52.375 7.375 35.0068 7.39237 12.9659C7.16082 10.4087 9.27671 8.12761 11.8199 8.12522H18.4947C19.5744 8.11461 20.6212 8.49621 21.4399 9.1989C23.7675 11.1967 25.2646 17.9774 24.6886 20.673C24.2389 22.7776 22.1174 24.2499 20.6751 25.6894C23.8423 31.2485 28.4543 35.8514 34.0245 39.0124C35.4668 37.573 36.9421 35.4557 39.0508 35.0068C41.7559 34.4311 48.5803 35.9303 50.5701 38.2741C51.2757 39.1052 51.6506 40.1661 51.6235 41.2551Z" stroke="url(#paint0_linear_22857_8449)" stroke-width="2" stroke-linecap="round" stroke-linejoin="round"/>
<defs>
<linearGradient id="paint0_linear_22857_8449" x1="5.55651" y1="13.8967" x2="51.2087" y2="14.7685" gradientUnits="userSpaceOnUse">
<stop offset="0.23" stop-color="#C54589"/>
<stop offset="1" stop-color="#715CFF"/>
</linearGradient>
</defs>
</svg>
