<svg width="1440" height="777" viewBox="0 0 1440 777" fill="none" xmlns="http://www.w3.org/2000/svg">
<rect width="1440" height="777" fill="url(#paint0_linear_14_29)"/>
<rect opacity="0.8" width="143.551" height="77.286" fill="black"/>
<rect opacity="0.8" x="144.05" width="143.551" height="77.286" fill="black"/>
<rect opacity="0.8" x="288.1" width="143.551" height="77.286" fill="black"/>
<rect opacity="0.8" x="432.149" width="143.551" height="77.286" fill="black"/>
<rect opacity="0.8" x="576.199" width="143.551" height="77.286" fill="black"/>
<rect opacity="0.8" x="720.249" width="143.551" height="77.286" fill="black"/>
<rect opacity="0.8" x="864.299" width="143.551" height="77.286" fill="black"/>
<rect opacity="0.8" x="1008.35" width="143.551" height="77.286" fill="black"/>
<rect opacity="0.8" x="1152.4" width="143.551" height="77.286" fill="black"/>
<rect opacity="0.8" x="1296.45" width="143.551" height="77.286" fill="black"/>
<rect opacity="0.8" y="77.746" width="143.551" height="77.286" fill="black"/>
<rect opacity="0.8" x="144.05" y="77.746" width="143.551" height="77.286" fill="black"/>
<rect opacity="0.8" x="288.1" y="77.746" width="143.551" height="77.286" fill="black"/>
<rect opacity="0.8" x="432.149" y="77.746" width="143.551" height="77.286" fill="black"/>
<rect opacity="0.8" x="576.199" y="77.746" width="143.551" height="77.286" fill="black"/>
<rect opacity="0.8" x="720.249" y="77.746" width="143.551" height="77.286" fill="black"/>
<rect opacity="0.8" x="864.299" y="77.746" width="143.551" height="77.286" fill="black"/>
<rect opacity="0.8" x="1008.35" y="77.746" width="143.551" height="77.286" fill="black"/>
<rect opacity="0.8" x="1152.4" y="77.746" width="143.551" height="77.286" fill="black"/>
<rect opacity="0.8" x="1296.45" y="77.746" width="143.551" height="77.286" fill="black"/>
<rect opacity="0.8" y="155.492" width="143.551" height="77.286" fill="black"/>
<rect opacity="0.8" x="144.05" y="155.492" width="143.551" height="77.286" fill="black"/>
<rect opacity="0.8" x="288.1" y="155.492" width="143.551" height="77.286" fill="black"/>
<rect opacity="0.8" x="432.149" y="155.492" width="143.551" height="77.286" fill="black"/>
<rect opacity="0.8" x="576.199" y="155.492" width="143.551" height="77.286" fill="black"/>
<rect opacity="0.8" x="720.249" y="155.492" width="143.551" height="77.286" fill="black"/>
<rect opacity="0.8" x="864.299" y="155.492" width="143.551" height="77.286" fill="black"/>
<rect opacity="0.8" x="1008.35" y="155.492" width="143.551" height="77.286" fill="black"/>
<rect opacity="0.8" x="1152.4" y="155.492" width="143.551" height="77.286" fill="black"/>
<rect opacity="0.8" x="1296.45" y="155.492" width="143.551" height="77.286" fill="black"/>
<rect opacity="0.8" y="233.238" width="143.551" height="77.286" fill="black"/>
<rect opacity="0.8" x="144.05" y="233.238" width="143.551" height="77.286" fill="black"/>
<rect opacity="0.8" x="288.1" y="233.238" width="143.551" height="77.286" fill="black"/>
<rect opacity="0.8" x="432.149" y="233.238" width="143.551" height="77.286" fill="black"/>
<rect opacity="0.8" x="576.199" y="233.238" width="143.551" height="77.286" fill="black"/>
<rect opacity="0.8" x="720.249" y="233.238" width="143.551" height="77.286" fill="black"/>
<rect opacity="0.8" x="864.299" y="233.238" width="143.551" height="77.286" fill="black"/>
<rect opacity="0.8" x="1008.35" y="233.238" width="143.551" height="77.286" fill="black"/>
<rect opacity="0.8" x="1152.4" y="233.238" width="143.551" height="77.286" fill="black"/>
<rect opacity="0.8" x="1296.45" y="233.238" width="143.551" height="77.286" fill="black"/>
<rect opacity="0.8" y="310.984" width="143.551" height="77.286" fill="black"/>
<rect opacity="0.8" x="144.05" y="310.984" width="143.551" height="77.286" fill="black"/>
<rect opacity="0.8" x="288.1" y="310.984" width="143.551" height="77.286" fill="black"/>
<rect opacity="0.8" x="432.149" y="310.984" width="143.551" height="77.286" fill="black"/>
<rect opacity="0.8" x="576.199" y="310.984" width="143.551" height="77.286" fill="black"/>
<rect opacity="0.8" x="720.249" y="310.984" width="143.551" height="77.286" fill="black"/>
<rect opacity="0.8" x="864.299" y="310.984" width="143.551" height="77.286" fill="black"/>
<rect opacity="0.8" x="1008.35" y="310.984" width="143.551" height="77.286" fill="black"/>
<rect opacity="0.8" x="1152.4" y="310.984" width="143.551" height="77.286" fill="black"/>
<rect opacity="0.8" x="1296.45" y="310.984" width="143.551" height="77.286" fill="black"/>
<rect opacity="0.8" y="388.73" width="143.551" height="77.286" fill="black"/>
<rect opacity="0.8" x="144.05" y="388.73" width="143.551" height="77.286" fill="black"/>
<rect opacity="0.8" x="288.1" y="388.73" width="143.551" height="77.286" fill="black"/>
<rect opacity="0.8" x="432.149" y="388.73" width="143.551" height="77.286" fill="black"/>
<rect opacity="0.8" x="576.199" y="388.73" width="143.551" height="77.286" fill="black"/>
<rect opacity="0.8" x="720.249" y="388.73" width="143.551" height="77.286" fill="black"/>
<rect opacity="0.8" x="864.299" y="388.73" width="143.551" height="77.286" fill="black"/>
<rect opacity="0.8" x="1008.35" y="388.73" width="143.551" height="77.286" fill="black"/>
<rect opacity="0.8" x="1152.4" y="388.73" width="143.551" height="77.286" fill="black"/>
<rect opacity="0.8" x="1296.45" y="388.73" width="143.551" height="77.286" fill="black"/>
<rect opacity="0.8" y="466.476" width="143.551" height="77.286" fill="black"/>
<rect opacity="0.8" x="144.05" y="466.476" width="143.551" height="77.286" fill="black"/>
<rect opacity="0.8" x="288.1" y="466.476" width="143.551" height="77.286" fill="black"/>
<rect opacity="0.8" x="432.149" y="466.476" width="143.551" height="77.286" fill="black"/>
<rect opacity="0.8" x="576.199" y="466.476" width="143.551" height="77.286" fill="black"/>
<rect opacity="0.8" x="720.249" y="466.476" width="143.551" height="77.286" fill="black"/>
<rect opacity="0.8" x="864.299" y="466.476" width="143.551" height="77.286" fill="black"/>
<rect opacity="0.8" x="1008.35" y="466.476" width="143.551" height="77.286" fill="black"/>
<rect opacity="0.8" x="1152.4" y="466.476" width="143.551" height="77.286" fill="black"/>
<rect opacity="0.8" x="1296.45" y="466.476" width="143.551" height="77.286" fill="black"/>
<rect opacity="0.8" y="544.222" width="143.551" height="77.286" fill="black"/>
<rect opacity="0.8" x="144.05" y="544.222" width="143.551" height="77.286" fill="black"/>
<rect opacity="0.8" x="288.1" y="544.222" width="143.551" height="77.286" fill="black"/>
<rect opacity="0.8" x="432.149" y="544.222" width="143.551" height="77.286" fill="black"/>
<rect opacity="0.8" x="576.199" y="544.222" width="143.551" height="77.286" fill="black"/>
<rect opacity="0.8" x="720.249" y="544.222" width="143.551" height="77.286" fill="black"/>
<rect opacity="0.8" x="864.299" y="544.222" width="143.551" height="77.286" fill="black"/>
<rect opacity="0.8" x="1008.35" y="544.222" width="143.551" height="77.286" fill="black"/>
<rect opacity="0.8" x="1152.4" y="544.222" width="143.551" height="77.286" fill="black"/>
<rect opacity="0.8" x="1296.45" y="544.222" width="143.551" height="77.286" fill="black"/>
<rect opacity="0.8" y="621.968" width="143.551" height="77.286" fill="black"/>
<rect opacity="0.8" x="144.05" y="621.968" width="143.551" height="77.286" fill="black"/>
<rect opacity="0.8" x="288.1" y="621.968" width="143.551" height="77.286" fill="black"/>
<rect opacity="0.8" x="432.149" y="621.968" width="143.551" height="77.286" fill="black"/>
<rect opacity="0.8" x="576.199" y="621.968" width="143.551" height="77.286" fill="black"/>
<rect opacity="0.8" x="720.249" y="621.968" width="143.551" height="77.286" fill="black"/>
<rect opacity="0.8" x="864.299" y="621.968" width="143.551" height="77.286" fill="black"/>
<rect opacity="0.8" x="1008.35" y="621.968" width="143.551" height="77.286" fill="black"/>
<rect opacity="0.8" x="1152.4" y="621.968" width="143.551" height="77.286" fill="black"/>
<rect opacity="0.8" x="1296.45" y="621.968" width="143.551" height="77.286" fill="black"/>
<rect opacity="0.8" y="699.714" width="143.551" height="77.286" fill="black"/>
<rect opacity="0.8" x="144.05" y="699.714" width="143.551" height="77.286" fill="black"/>
<rect opacity="0.8" x="288.1" y="699.714" width="143.551" height="77.286" fill="black"/>
<rect opacity="0.8" x="432.149" y="699.714" width="143.551" height="77.286" fill="black"/>
<rect opacity="0.8" x="576.199" y="699.714" width="143.551" height="77.286" fill="black"/>
<rect opacity="0.8" x="720.249" y="699.714" width="143.551" height="77.286" fill="black"/>
<rect opacity="0.8" x="864.299" y="699.714" width="143.551" height="77.286" fill="black"/>
<rect opacity="0.8" x="1008.35" y="699.714" width="143.551" height="77.286" fill="black"/>
<rect opacity="0.8" x="1152.4" y="699.714" width="143.551" height="77.286" fill="black"/>
<rect opacity="0.8" x="1296.45" y="699.714" width="143.551" height="77.286" fill="black"/>
<defs>
<linearGradient id="paint0_linear_14_29" x1="720" y1="0" x2="720" y2="777" gradientUnits="userSpaceOnUse">
<stop offset="0.74624" stop-color="#0F1722"/>
<stop offset="0.897475" stop-color="#3736C2"/>
</linearGradient>
</defs>
</svg>
